<svg xmlns="http://www.w3.org/2000/svg" xmlns:xlink="http://www.w3.org/1999/xlink" viewBox="0 0 54 54">
  <defs>
    <path id="eg-mark" d="M10.743 51.67c-14.31-8.14-14.265-41.82-.222-49.728 14.044-7.908 43.176 9.91 43.176 25.054 0 15.143-28.644 32.815-42.954 24.674z" />
    <linearGradient id="eg-gradient" x1="50%" x2="50%" y1="100%" y2="0%">
      <stop offset="0%" stop-color="#FFA246" />
      <stop offset="100%" stop-color="#E14A53" />
    </linearGradient>
  </defs>
  <g fill="none" fill-rule="evenodd">
    <mask id="eg-mask" fill="#fff">
      <use xlink:href="#eg-mark" />
    </mask>
    <use fill="#FA994D" fill-rule="nonzero" xlink:href="#eg-mark" />
    <path fill="url(#eg-gradient)" fill-rule="nonzero" d="M10.743 52.566c-14.31-8.141-14.265-41.82-.222-49.728 14.044-7.909 43.176 9.91 43.176 25.053 0 15.144-28.644 32.815-42.954 24.675z" mask="url(#eg-mask)" />
    <path fill="#DB466C" fill-rule="nonzero" d="M.002 26.173c.1 10.31 3.667 20.577 10.741 24.602 14.168 8.06 42.39-9.185 42.946-24.225.005.149.008.297.008.446 0 15.143-28.644 32.815-42.954 24.674C3.463 47.53-.1 36.778.003 26.173z" />
    <path fill="#FFF" d="M10.092 20.98c3.278 0 5.427 2.633 5.427 5.792 0 .187-.011.362-.022.538-.033.318-.23.46-.526.46H6.8c.36 1.798 1.697 2.72 3.368 2.72 1.041 0 1.907-.438 2.379-1.052.175-.187.34-.296.603-.296l1.403-.011c.362 0 .56.219.417.526-.8 1.788-2.599 2.863-4.835 2.863-3.497 0-5.789-2.48-5.789-5.77 0-3.246 2.313-5.77 5.745-5.77zm-3.3 4.838h6.345c-.311-1.868-1.644-2.676-3.056-2.676-1.768 0-2.967 1.035-3.29 2.676zm21.08-4.552c.317 0 .493.175.493.494v9.981c0 .318-.176.494-.494.494H26.49c-.318 0-.493-.176-.493-.494v-1.08c-.83 1.151-2.12 1.859-3.848 1.859-2.982 0-5.449-2.512-5.449-5.77 0-3.257 2.467-5.77 5.449-5.77 1.728 0 3.018.709 3.848 1.86v-1.08c0-.319.175-.494.493-.494h1.381zm-5.34 8.994c1.974 0 3.465-1.47 3.465-3.51s-1.491-3.51-3.465-3.51c-1.973 0-3.464 1.47-3.464 3.51s1.49 3.51 3.464 3.51zm10.39-5.912c0 2.205 6.085.614 6.085 4.804 0 2.161-1.886 3.368-4.309 3.368-2.247 0-4.034-1.075-4.275-3.16-.033-.34.164-.515.482-.515h1.36c.295 0 .416.165.526.44.186.789.953 1.107 1.907 1.107 1.151 0 1.94-.406 1.94-1.24 0-2.182-6.084-.625-6.084-4.804 0-2.139 1.886-3.367 4.144-3.367 2.05 0 3.815 1.075 4.057 3.159.033.34-.165.515-.483.515h-1.36c-.295 0-.416-.164-.525-.45-.176-.778-.91-1.096-1.689-1.096-.986 0-1.776.406-1.776 1.24zm14.359-2.676c.088-.274.285-.406.56-.406h1.501c.35 0 .526.208.406.56l-4.945 14.401c-.087.275-.296.395-.57.395h-1.502c-.35 0-.526-.208-.405-.56l1.36-3.959-4.046-10.267c-.132-.34.022-.57.383-.57h1.491c.274 0 .46.12.56.384l2.795 7.173 2.412-7.151z" />
  </g>
</svg>
